<mxfile host="Electron" modified="2023-10-17T09:20:35.150Z" agent="Mozilla/5.0 (Windows NT 10.0; Win64; x64) AppleWebKit/537.36 (KHTML, like Gecko) draw.io/21.4.0 Chrome/112.0.5615.204 Electron/24.5.1 Safari/537.36" etag="NzUEilfZJn7Sf_wgrooF" version="21.4.0" type="device">
  <diagram name="Page-1" id="c_x3nn40oHy5HrwsD6OF">
    <mxGraphModel dx="1050" dy="621" grid="1" gridSize="10" guides="1" tooltips="1" connect="1" arrows="1" fold="1" page="1" pageScale="1" pageWidth="850" pageHeight="1100" math="0" shadow="0">
      <root>
        <mxCell id="0" />
        <mxCell id="1" parent="0" />
        <mxCell id="ZvBxzl65H64Q5XOjN3YQ-1" value="" style="rounded=0;whiteSpace=wrap;html=1;" vertex="1" parent="1">
          <mxGeometry x="40" y="40" width="760" height="440" as="geometry" />
        </mxCell>
        <mxCell id="ZvBxzl65H64Q5XOjN3YQ-2" value="LOGO, TRANG CHỦ, SẢN PHẨM, ĐĂNG NHẬP,..." style="rounded=0;whiteSpace=wrap;html=1;fontSize=16;fontStyle=1" vertex="1" parent="1">
          <mxGeometry x="40" y="40" width="760" height="70" as="geometry" />
        </mxCell>
        <mxCell id="ZvBxzl65H64Q5XOjN3YQ-3" value="&lt;font style=&quot;font-size: 16px;&quot;&gt;&lt;b&gt;ẢNH NỀN CHUYỂN ĐỘNG&lt;/b&gt;&lt;/font&gt;" style="rounded=0;whiteSpace=wrap;html=1;" vertex="1" parent="1">
          <mxGeometry x="40" y="110" width="760" height="260" as="geometry" />
        </mxCell>
        <mxCell id="ZvBxzl65H64Q5XOjN3YQ-4" value="" style="ellipse;whiteSpace=wrap;html=1;aspect=fixed;" vertex="1" parent="1">
          <mxGeometry x="470" y="300" width="30" height="30" as="geometry" />
        </mxCell>
        <mxCell id="ZvBxzl65H64Q5XOjN3YQ-5" value="" style="ellipse;whiteSpace=wrap;html=1;aspect=fixed;" vertex="1" parent="1">
          <mxGeometry x="340" y="300" width="30" height="30" as="geometry" />
        </mxCell>
        <mxCell id="ZvBxzl65H64Q5XOjN3YQ-6" value="" style="ellipse;whiteSpace=wrap;html=1;aspect=fixed;" vertex="1" parent="1">
          <mxGeometry x="405" y="300" width="30" height="30" as="geometry" />
        </mxCell>
        <mxCell id="ZvBxzl65H64Q5XOjN3YQ-8" value="" style="triangle;whiteSpace=wrap;html=1;" vertex="1" parent="1">
          <mxGeometry x="730" y="190" width="40" height="50" as="geometry" />
        </mxCell>
        <mxCell id="ZvBxzl65H64Q5XOjN3YQ-9" value="" style="triangle;whiteSpace=wrap;html=1;rotation=-180;" vertex="1" parent="1">
          <mxGeometry x="70" y="190" width="40" height="50" as="geometry" />
        </mxCell>
        <mxCell id="ZvBxzl65H64Q5XOjN3YQ-10" value="GIAO HÀNG" style="rounded=0;whiteSpace=wrap;html=1;fontSize=16;" vertex="1" parent="1">
          <mxGeometry x="40" y="380" width="190" height="100" as="geometry" />
        </mxCell>
        <mxCell id="ZvBxzl65H64Q5XOjN3YQ-11" value="ĐỔI TRẢ" style="rounded=0;whiteSpace=wrap;html=1;fontSize=16;" vertex="1" parent="1">
          <mxGeometry x="630" y="380" width="170" height="100" as="geometry" />
        </mxCell>
        <mxCell id="ZvBxzl65H64Q5XOjN3YQ-12" value="THANH TOÁN" style="rounded=0;whiteSpace=wrap;html=1;fontSize=16;" vertex="1" parent="1">
          <mxGeometry x="240" y="380" width="185" height="100" as="geometry" />
        </mxCell>
        <mxCell id="ZvBxzl65H64Q5XOjN3YQ-13" value="BẢO HÀNH" style="rounded=0;whiteSpace=wrap;html=1;fontSize=16;" vertex="1" parent="1">
          <mxGeometry x="435" y="380" width="185" height="100" as="geometry" />
        </mxCell>
      </root>
    </mxGraphModel>
  </diagram>
</mxfile>
